<svg width="19" height="19" viewBox="0 0 19 19" fill="none" xmlns="http://www.w3.org/2000/svg">
<path d="M7.41444 0.400024H1.72694C0.995174 0.400024 0.399902 0.995296 0.399902 1.72706V5.13956C0.399902 5.87147 0.995174 6.46674 1.72694 6.46674H7.41444C8.14635 6.46674 8.74162 5.87147 8.74162 5.13956V1.72706C8.74162 0.995296 8.14635 0.400024 7.41444 0.400024Z" fill="#1A1A1A"/>
<path d="M7.41444 7.98328H1.72694C0.995174 7.98328 0.399902 8.57855 0.399902 9.31045V17.273C0.399902 18.0047 0.995174 18.6 1.72694 18.6H7.41444C8.14635 18.6 8.74162 18.0047 8.74162 17.273V9.31045C8.74162 8.57855 8.14635 7.98328 7.41444 7.98328Z" fill="#1A1A1A"/>
<path d="M17.273 12.5333H11.5855C10.8536 12.5333 10.2583 13.1286 10.2583 13.8605V17.273C10.2583 18.0048 10.8536 18.6 11.5855 18.6H17.273C18.0047 18.6 18.6 18.0048 18.6 17.273V13.8605C18.6 13.1286 18.0047 12.5333 17.273 12.5333Z" fill="#1A1A1A"/>
<path d="M17.273 0.400024H11.5855C10.8536 0.400024 10.2583 0.995296 10.2583 1.72706V9.68957C10.2583 10.4215 10.8536 11.0167 11.5855 11.0167H17.273C18.0047 11.0167 18.6 10.4215 18.6 9.68957V1.72706C18.6 0.995296 18.0047 0.400024 17.273 0.400024V0.400024Z" fill="#1A1A1A"/>
</svg>
