<svg width="19" height="18" viewBox="0 0 19 18" fill="none" xmlns="http://www.w3.org/2000/svg">
<path d="M17.95 12.781H15.35C15.2093 12.781 15.0725 12.8245 14.96 12.9048L12.75 14.4834L10.54 12.9048C10.4275 12.8244 10.2906 12.781 10.15 12.781H1.05004C0.691039 12.781 0.400024 13.0582 0.400024 13.4001V14.6381C0.402157 16.3468 1.85597 17.7313 3.65001 17.7334H15.35C17.144 17.7313 18.5979 16.3468 18.6 14.6381V13.4001C18.6 13.0582 18.309 12.781 17.95 12.781Z" fill="#1A1A1A"/>
<path d="M17.95 10.3048H1.05004C0.691039 10.3048 0.400024 10.582 0.400024 10.9238C0.400024 11.2657 0.691039 11.5429 1.05004 11.5429H17.95C18.309 11.5429 18.6 11.2657 18.6 10.9238C18.6 10.5819 18.309 10.3048 17.95 10.3048Z" fill="#1A1A1A"/>
<path d="M10.15 0.400024H8.85003C4.18546 0.405139 0.405395 4.0052 0.400024 8.44765C0.400024 8.78955 0.691039 9.0667 1.05004 9.0667H17.95C18.309 9.0667 18.6 8.78955 18.6 8.44765C18.5947 4.0052 14.8146 0.405139 10.15 0.400024ZM6.90003 5.35239C6.90003 5.69429 6.60902 5.97145 6.25002 5.97145C5.89102 5.97145 5.60001 5.69429 5.60001 5.35239V4.73333C5.60001 4.39143 5.89102 4.11427 6.25002 4.11427C6.60902 4.11427 6.90003 4.39143 6.90003 4.73333V5.35239ZM10.15 5.35239C10.15 5.69429 9.859 5.97145 9.50001 5.97145C9.14101 5.97145 8.84999 5.69429 8.84999 5.35239V4.73333C8.84999 4.39143 9.14101 4.11427 9.50001 4.11427C9.859 4.11427 10.15 4.39146 10.15 4.73336V5.35239ZM13.4 5.35239C13.4 5.69429 13.109 5.97145 12.75 5.97145C12.391 5.97145 12.1 5.69429 12.1 5.35239V4.73333C12.1 4.39143 12.391 4.11427 12.75 4.11427C13.109 4.11427 13.4 4.39143 13.4 4.73333V5.35239Z" fill="#1A1A1A"/>
</svg>
