<svg width="23" height="24" viewBox="0 0 23 24" fill="none" xmlns="http://www.w3.org/2000/svg">
<path d="M9.14586 8.33339H2.27086C1.38631 8.33339 0.666748 7.61383 0.666748 6.72911V2.60411C0.666748 1.71956 1.38631 1 2.27086 1H9.14586C10.0306 1 10.7501 1.71956 10.7501 2.60411V6.72911C10.7501 7.61383 10.0306 8.33339 9.14586 8.33339ZM2.27086 2.375C2.14447 2.375 2.04175 2.47772 2.04175 2.60411V6.72911C2.04175 6.85567 2.14447 6.95839 2.27086 6.95839H9.14586C9.27242 6.95839 9.37514 6.85567 9.37514 6.72911V2.60411C9.37514 2.47772 9.27242 2.375 9.14586 2.375H2.27086Z" fill="#1A1A1A" stroke="white" stroke-width="0.1"/>
<path d="M9.14586 22.9999H2.27086C1.38631 22.9999 0.666748 22.2803 0.666748 21.3958V11.7708C0.666748 10.8861 1.38631 10.1665 2.27086 10.1665H9.14586C10.0306 10.1665 10.7501 10.8861 10.7501 11.7708V21.3958C10.7501 22.2803 10.0306 22.9999 9.14586 22.9999ZM2.27086 11.5415C2.14447 11.5415 2.04175 11.6442 2.04175 11.7708V21.3958C2.04175 21.5222 2.14447 21.6249 2.27086 21.6249H9.14586C9.27242 21.6249 9.37514 21.5222 9.37514 21.3958V11.7708C9.37514 11.6442 9.27242 11.5415 9.14586 11.5415H2.27086Z" fill="#1A1A1A" stroke="white" stroke-width="0.1"/>
<path d="M21.0628 22.9999H14.1878C13.3031 22.9999 12.5835 22.2803 12.5835 21.3958V17.2708C12.5835 16.3861 13.3031 15.6665 14.1878 15.6665H21.0628C21.9473 15.6665 22.6669 16.3861 22.6669 17.2708V21.3958C22.6669 22.2803 21.9473 22.9999 21.0628 22.9999ZM14.1878 17.0415C14.0612 17.0415 13.9585 17.1442 13.9585 17.2708V21.3958C13.9585 21.5222 14.0612 21.6249 14.1878 21.6249H21.0628C21.1892 21.6249 21.2919 21.5222 21.2919 21.3958V17.2708C21.2919 17.1442 21.1892 17.0415 21.0628 17.0415H14.1878Z" fill="#1A1A1A" stroke="white" stroke-width="0.1"/>
<path d="M21.0628 13.8334H14.1878C13.3031 13.8334 12.5835 13.1138 12.5835 12.2291V2.60411C12.5835 1.71956 13.3031 1 14.1878 1H21.0628C21.9473 1 22.6669 1.71956 22.6669 2.60411V12.2291C22.6669 13.1138 21.9473 13.8334 21.0628 13.8334ZM14.1878 2.375C14.0612 2.375 13.9585 2.47772 13.9585 2.60411V12.2291C13.9585 12.3557 14.0612 12.4584 14.1878 12.4584H21.0628C21.1892 12.4584 21.2919 12.3557 21.2919 12.2291V2.60411C21.2919 2.47772 21.1892 2.375 21.0628 2.375H14.1878Z" fill="#1A1A1A" stroke="white" stroke-width="0.1"/>
</svg>
