<svg width="15" height="14" viewBox="0 0 15 14" fill="none" xmlns="http://www.w3.org/2000/svg">
<path d="M14.1225 6.08932C14.1222 6.089 14.1219 6.08868 14.1216 6.08836L8.41069 0.377686C8.16727 0.134155 7.84363 0 7.49937 0C7.15512 0 6.83148 0.134048 6.58795 0.377579L0.88005 6.08537C0.878127 6.0873 0.876205 6.08932 0.874282 6.09125C0.374404 6.59401 0.375259 7.40973 0.876739 7.91121C1.10585 8.14043 1.40845 8.27319 1.73198 8.28708C1.74512 8.28836 1.75836 8.289 1.77171 8.289H1.99933V12.4917C1.99933 13.3233 2.67598 14 3.50783 14H5.74211C5.96855 14 6.15227 13.8164 6.15227 13.5898V10.2949C6.15227 9.91542 6.46095 9.60674 6.84045 9.60674H8.15829C8.53779 9.60674 8.84648 9.91542 8.84648 10.2949V13.5898C8.84648 13.8164 9.03009 14 9.25664 14H11.4909C12.3228 14 12.9994 13.3233 12.9994 12.4917V8.289H13.2105C13.5546 8.289 13.8783 8.15495 14.1219 7.91142C14.6239 7.40909 14.6241 6.59198 14.1225 6.08932Z" fill="#FEC61C"/>
</svg>
