<svg width="15" height="12" viewBox="0 0 15 12" fill="none" xmlns="http://www.w3.org/2000/svg">
<path d="M13.2672 0.155518H0.992687C0.499694 0.155518 0.0999756 0.555212 0.0999756 1.04821V10.1984C0.0999756 10.6914 0.499694 11.091 0.992687 11.091H13.2672C13.7603 11.091 14.16 10.6914 14.16 10.1984V1.04821C14.16 0.555212 13.7603 0.155518 13.2672 0.155518ZM13.2672 1.04821V7.54057L11.508 5.94108C11.2435 5.70072 10.8369 5.71032 10.5843 5.96318L8.80373 7.74343L5.29303 3.54998C5.02765 3.23307 4.54158 3.22996 4.27222 3.54306L0.992687 7.35445V1.04821H13.2672ZM9.47332 3.39154C9.47332 2.71353 10.0227 2.16407 10.7007 2.16407C11.3788 2.16407 11.9282 2.71353 11.9282 3.39154C11.9282 4.06955 11.3788 4.61898 10.7007 4.61898C10.0227 4.61901 9.47332 4.06955 9.47332 3.39154Z" fill="white"/>
</svg>
