<svg width="24" height="30" viewBox="0 0 24 30" fill="none" xmlns="http://www.w3.org/2000/svg">
<path d="M23.7725 24.7393L22.4327 7.85754C22.3492 6.76992 21.4294 5.91791 20.3386 5.91791H17.6924V5.79896C17.6924 2.60139 15.091 0 11.8934 0C8.69584 0 6.09445 2.60139 6.09445 5.79896V5.91791H3.44824C2.3574 5.91791 1.43753 6.76986 1.35433 7.85525L0.0141751 24.7416C-0.0895358 26.0937 0.379507 27.4397 1.30095 28.4345C2.2224 29.4294 3.52863 30 4.88466 30H18.9021C20.2581 30 21.5644 29.4294 22.4859 28.4345C23.4073 27.4397 23.8763 26.0937 23.7725 24.7393ZM7.85168 5.79896C7.85168 3.57035 9.66486 1.75723 11.8934 1.75723C14.122 1.75723 15.9352 3.57041 15.9352 5.79896V5.91791H7.85168V5.79896ZM21.1966 27.2405C20.5979 27.8868 19.7831 28.2428 18.9021 28.2428H4.88472C4.00371 28.2428 3.1889 27.8868 2.59019 27.2405C1.99154 26.5942 1.69892 25.7544 1.76619 24.8783L3.10623 7.99189C3.11982 7.81424 3.27005 7.67514 3.44824 7.67514H6.09445V9.8393C6.09445 10.3245 6.48785 10.7179 6.97306 10.7179C7.45828 10.7179 7.85168 10.3245 7.85168 9.8393V7.67514H15.9352V9.8393C15.9352 10.3245 16.3286 10.7179 16.8138 10.7179C17.299 10.7179 17.6924 10.3245 17.6924 9.8393V7.67514H20.3386C20.5168 7.67514 20.667 7.8143 20.6808 7.99424L22.0206 24.876C22.088 25.7544 21.7953 26.5941 21.1966 27.2405Z" fill="#FEC61C"/>
<path d="M15.8517 14.8994C15.5087 14.5563 14.9523 14.5563 14.6093 14.8994L10.686 18.8226L9.1775 17.3141C8.83443 16.971 8.27808 16.971 7.93496 17.3141C7.59183 17.6572 7.59183 18.2135 7.93496 18.5566L10.0648 20.6864C10.2363 20.858 10.4612 20.9438 10.686 20.9438C10.9108 20.9438 11.1357 20.8581 11.3072 20.6864L15.8516 16.142C16.1948 15.7988 16.1948 15.2426 15.8517 14.8994Z" fill="#FEC61C"/>
</svg>
