<svg width="23" height="24" viewBox="0 0 23 24" fill="none" xmlns="http://www.w3.org/2000/svg">
<path d="M12.6191 1H11.0477C5.40918 1.00649 0.839865 5.57581 0.833374 11.2143C0.833374 11.6483 1.18515 12 1.6191 12H22.0477C22.4816 12 22.8334 11.6483 22.8334 11.2143C22.8269 5.57581 18.2576 1.00649 12.6191 1ZM2.44015 10.4286C2.85177 5.98071 6.58076 2.57675 11.0476 2.57141H12.6191C17.086 2.57675 20.815 5.98066 21.2266 10.4286H2.44015Z" fill="#1A1A1A" stroke="white" stroke-width="0.3"/>
<path d="M22.0477 16.7144H18.9048C18.7348 16.7144 18.5694 16.7695 18.4334 16.8715L15.7619 18.8751L13.0905 16.8715C12.9545 16.7695 12.7891 16.7144 12.6191 16.7144H1.6191C1.18515 16.7144 0.833374 17.0661 0.833374 17.5001V19.0715C0.835952 21.2401 2.59331 22.9975 4.76193 23.0001H18.9048C21.0734 22.9975 22.8308 21.2401 22.8334 19.0715V17.5001C22.8334 17.0661 22.4816 16.7144 22.0477 16.7144ZM21.2619 19.0715C21.2619 20.3733 20.2066 21.4286 18.9048 21.4286H4.76193C3.46012 21.4286 2.40479 20.3733 2.40479 19.0715V18.2858H12.3574L15.2905 20.4858C15.5699 20.6953 15.954 20.6953 16.2334 20.4858L19.1664 18.2858H21.2619V19.0715Z" fill="#1A1A1A" stroke="white" stroke-width="0.3"/>
<path d="M22.0477 13.5715H1.6191C1.18515 13.5715 0.833374 13.9233 0.833374 14.3572C0.833374 14.7911 1.18515 15.1429 1.6191 15.1429H22.0477C22.4816 15.1429 22.8334 14.7912 22.8334 14.3572C22.8334 13.9233 22.4816 13.5715 22.0477 13.5715Z" fill="#1A1A1A" stroke="white" stroke-width="0.3"/>
<path d="M7.90487 5.71436C7.47092 5.71436 7.11914 6.06613 7.11914 6.50009V7.28582C7.11914 7.71977 7.47092 8.07155 7.90487 8.07155C8.33882 8.07155 8.6906 7.71977 8.6906 7.28582V6.50009C8.6906 6.06613 8.33882 5.71436 7.90487 5.71436Z" fill="#1A1A1A" stroke="white" stroke-width="0.3"/>
<path d="M11.8333 5.71436C11.3994 5.71436 11.0476 6.06613 11.0476 6.50009V7.28582C11.0476 7.71977 11.3994 8.07155 11.8333 8.07155C12.2673 8.07155 12.6191 7.71973 12.6191 7.28577V6.50004C12.6191 6.06613 12.2673 5.71436 11.8333 5.71436Z" fill="#1A1A1A" stroke="white" stroke-width="0.3"/>
<path d="M15.762 5.71436C15.3281 5.71436 14.9763 6.06613 14.9763 6.50009V7.28582C14.9763 7.71977 15.3281 8.07155 15.762 8.07155C16.196 8.07155 16.5478 7.71977 16.5478 7.28582V6.50009C16.5477 6.06613 16.196 5.71436 15.762 5.71436Z" fill="#1A1A1A" stroke="white" stroke-width="0.3"/>
</svg>
