<svg width="18" height="18" viewBox="0 0 18 18" fill="none" xmlns="http://www.w3.org/2000/svg">
<path fill-rule="evenodd" clip-rule="evenodd" d="M14.0001 13.2921L17.8541 17.1461C18.0496 17.3416 18.0496 17.6586 17.8541 17.8541C17.6586 18.0496 17.3416 18.0496 17.1461 17.8541L13.2921 13.9991C10.0518 16.8575 5.12718 16.6264 2.16884 13.477C-0.789505 10.3277 -0.712438 5.39825 2.34291 2.34291C5.39825 -0.712438 10.3277 -0.789505 13.477 2.16884C16.6264 5.12718 16.8575 10.0518 13.9991 13.2921H14.0001ZM8.00006 15.0001C10.5009 15.0001 12.8118 13.6659 14.0622 11.5001C15.3127 9.33425 15.3127 6.66587 14.0622 4.50006C12.8118 2.33425 10.5009 1.00006 8.00006 1.00006C4.13407 1.00006 1.00006 4.13407 1.00006 8.00006C1.00006 11.8661 4.13407 15.0001 8.00006 15.0001Z" fill="#1A1A1A"/>
</svg>
