<svg width="30" height="30" viewBox="0 0 30 30" fill="none" xmlns="http://www.w3.org/2000/svg">
<path d="M20.0056 26.729L20.1175 26.8355L20.2207 26.7206L27.5779 18.529C27.955 18.1091 28.6011 18.0744 29.021 18.4515C29.4409 18.8286 29.4755 19.4747 29.0984 19.8946L21.1278 28.7691C20.6374 29.3151 19.7929 29.3482 19.2614 28.8422L14.8514 24.6444C14.4426 24.2553 14.4267 23.6085 14.8158 23.1997C15.2049 22.7909 15.8517 22.7749 16.2605 23.1641L20.0056 26.729Z" fill="#FEC61C" stroke="#1A1A1A" stroke-width="0.3"/>
<path d="M19.8212 15.6948L19.5767 15.8632L19.8573 15.9601C21.0833 16.3834 22.2496 16.9677 23.3299 17.7027C23.8072 18.0274 23.8672 18.7038 23.4699 19.1462C23.1076 19.5495 22.4884 19.6039 22.0223 19.2969C20.0046 17.9683 17.5912 17.1938 15 17.1938C8.33773 17.1938 2.84782 22.3071 2.24808 28.8154C2.19499 29.3915 1.73301 29.85 1.17188 29.85C0.604159 29.85 0.152055 29.3912 0.194279 28.8406C0.464981 25.311 1.96938 22.0296 4.49942 19.4995C6.11716 17.8817 8.04225 16.6846 10.1423 15.9599L10.4231 15.8631L10.1785 15.6946C7.94486 14.1561 6.47812 11.5821 6.47812 8.67188C6.47812 3.97306 10.3012 0.15 15 0.15C19.6988 0.15 23.5219 3.97306 23.5219 8.67188C23.5219 11.5822 22.0551 14.1564 19.8212 15.6948ZM8.52188 8.67188C8.52188 12.244 11.4278 15.15 15 15.15C18.5722 15.15 21.4781 12.244 21.4781 8.67188C21.4781 5.09972 18.5722 2.19375 15 2.19375C11.4278 2.19375 8.52188 5.09972 8.52188 8.67188Z" fill="#FEC61C" stroke="#1A1A1A" stroke-width="0.3"/>
</svg>
